<svg xmlns="http://www.w3.org/2000/svg" width="287" height="255" viewBox="0 0 287 255"><g fill="none" fill-rule="evenodd"><path fill="#204489" d="M.672 184.782l159.008 69.895 126.648-72.46-159.008-69.894L.672 184.783zm6.61-.268l152.23 66.808 120.304-68.78-152.332-66.867-120.2 68.84z"/><path fill="#18BFD6" d="M.672 128.782l159.008 69.895 126.648-72.46L127.32 56.324.672 128.783zm6.61-.268l152.23 66.808 120.304-68.78-152.332-66.867-120.2 68.84z"/><path fill="#FFF" d="M.672 72.782l159.008 69.895 126.648-72.46L127.32.324.672 72.783zm6.61-.268l152.23 66.808 120.304-68.78L127.484 3.676l-120.2 68.84z"/></g></svg>
